<svg width="106" height="104" viewBox="0 0 106 104" fill="none" xmlns="http://www.w3.org/2000/svg">
<g clip-path="url(#clip0_1158_58554)">
<path d="M32.654 27.3278C33.981 26.7395 35.4202 26.536 36.6069 27.2975C38.53 28.5332 39.2784 32.0571 37.3481 33.7027C37.1701 33.8537 36.6875 34.006 36.1237 34.1633C35.2265 34.4125 34.1304 34.6725 33.76 34.9571C33.3347 35.2818 33.0294 35.7385 32.892 36.2555C32.7545 36.7726 32.7929 37.3207 33.0009 37.8136C34.038 40.2706 33.972 42.036 33.4025 43.1552C33.2279 43.0691 33.0326 43.0337 32.8389 43.0532C32.6452 43.0727 32.4609 43.1462 32.3069 43.2654C32.5301 42.0639 32.232 40.4239 31.8949 38.7505C31.3362 35.9814 31.9673 35.5947 32.154 33.9327C32.3408 32.2707 34.6555 32.4407 33.8832 29.8306C33.1271 27.2811 31.0705 28.2475 30.9736 28.2944C31.5002 27.9171 32.0631 27.5933 32.654 27.3278V27.3278Z" fill="#FFFFCC"/>
<path d="M36.1237 34.1636C36.2493 36.0967 36.7166 43.5617 36.5657 44.9945C36.4147 45.8945 35.6085 46.735 34.4086 47.4763L33.9708 43.9573C33.9499 43.787 33.8871 43.6246 33.7879 43.4847C33.6887 43.3447 33.5563 43.2316 33.4025 43.1555C33.9721 42.0363 34.038 40.2709 33.0009 37.8139C32.7929 37.321 32.7546 36.7729 32.892 36.2559C33.0294 35.7388 33.3348 35.2821 33.76 34.9575C34.1304 34.6728 35.2265 34.4128 36.1237 34.1636Z" fill="#00CBEE"/>
<path d="M33.8834 29.8305C34.6557 32.4407 32.341 32.2706 32.1542 33.9326C31.9674 35.5946 31.3364 35.9813 31.8951 38.7504C32.2322 40.4238 32.5303 42.0638 32.3071 43.2653C32.1827 43.3615 32.0818 43.4848 32.0123 43.6259C31.0918 42.7356 30.7726 42.326 31.0422 41.0073C31.3848 39.3381 31.2092 35.2953 27.5942 35.7451C23.9774 36.1951 16.8198 36.6277 18.7316 37.2414C20.6454 37.8566 17.3289 38.4799 15.5454 37.1206C13.8907 35.8584 14.8491 33.0921 17.6429 32.4798C20.8422 32.9716 23.0391 32.8812 24.6856 32.4534C27.7009 31.676 28.8736 29.7781 30.9706 28.2964C30.9719 28.2962 30.973 28.2954 30.9738 28.2943C31.0707 28.2474 33.1273 27.281 33.8834 29.8305Z" fill="#FFA4E5"/>
<path d="M28.4031 23.5779C30.6011 22.0819 34.4894 25.1437 32.6539 27.3278C32.063 27.5933 31.5001 27.9171 30.9735 28.2944C30.9727 28.2955 30.9716 28.2963 30.9703 28.2966C30.9703 28.2966 30.7713 25.4514 29.6327 25.7898C28.6012 26.094 28.3394 24.8013 27.2896 24.3416C27.6571 24.0904 28.0274 23.8336 28.4031 23.5779Z" fill="#FFFFCC"/>
<path d="M32.5624 44.1567C32.9187 43.895 33.2068 43.5516 33.4026 43.1553C33.5564 43.2313 33.6888 43.3444 33.788 43.4844C33.8872 43.6244 33.95 43.7868 33.9708 43.9571L34.4087 47.4761C33.7979 47.847 33.16 48.1714 32.5006 48.4467C32.4468 48.3424 32.4121 48.2293 32.3981 48.1128L31.9473 44.4892C32.167 44.408 32.3741 44.2961 32.5624 44.1567V44.1567Z" fill="#009AC1"/>
<path d="M29.6327 25.79C30.7713 25.4516 30.9703 28.2967 30.9703 28.2967C28.8733 29.7784 27.7006 31.6763 24.6853 32.4537L24.6164 32.1801C24.875 32.1166 25.018 32.0205 25.0134 31.8713C24.9902 31.1532 19.4407 30.4017 18.5032 29.4038C17.5675 28.4057 16.4993 27.0427 21.2535 26.6079C23.7397 26.6033 25.5055 25.5529 27.2896 24.3418C28.3394 24.8015 28.6013 26.0942 29.6327 25.79Z" fill="#FFF6C5"/>
<path d="M11.4791 38.1995C11.4958 38.2357 11.7829 38.7938 12.2308 39.6506C7.64596 39.8641 6.35426 33.5273 11.5603 32.2039C12.8483 31.8765 14.5366 31.8545 16.6719 32.3185C17.0049 32.3781 17.3286 32.4318 17.6428 32.4798C14.849 33.0921 13.8906 35.8584 15.5453 37.1206C17.3288 38.48 20.6453 37.8566 18.7315 37.2414C16.8197 36.6277 23.9773 36.1951 27.5941 35.7451C31.2092 35.2954 31.3848 39.3381 31.0421 41.0073C30.7726 42.326 31.0917 42.7356 32.0123 43.6259C31.9218 43.8075 31.8873 44.0118 31.9129 44.213L31.9197 44.2678C31.8445 44.3804 31.7562 44.4838 31.6568 44.5757C31.2912 44.6654 30.9095 44.6675 30.543 44.5818C30.1764 44.496 29.8353 44.3249 29.5474 44.0824L28.9509 41.3737C28.9228 41.2413 28.8681 41.116 28.7902 41.0053C29.1218 39.0519 27.8352 38.4806 26.4135 38.9657C23.4393 39.9084 20.294 40.185 17.2009 39.7758C15.2309 39.5129 13.3058 38.9825 11.4791 38.1995V38.1995Z" fill="#F283D7"/>
<path d="M31.6567 44.5759C31.7552 44.5527 31.8522 44.5238 31.9472 44.4892L32.3981 48.1129C32.4121 48.2294 32.4468 48.3424 32.5006 48.4467C31.9167 48.6952 31.2924 48.9261 30.6432 49.1393C30.6417 49.0775 30.634 49.016 30.6204 48.9558L29.5474 44.0825C29.8353 44.3251 30.1764 44.4962 30.5429 44.5819C30.9095 44.6677 31.2911 44.6656 31.6567 44.5759Z" fill="#00CBEE"/>
<path d="M23.4494 22.8971C24.137 22.5146 24.6815 21.9187 25.0006 21.1994L25.0023 21.1992C26.9048 21.6121 28.3176 22.4829 28.4033 23.5781C28.0276 23.8338 27.6573 24.0906 27.2897 24.3418C25.5056 25.553 23.7399 26.6034 21.2536 26.6079C26.0097 26.1747 19.4268 25.3619 20.0084 23.2207C20.3364 23.3346 20.6777 23.4056 21.0239 23.4322C21.3423 23.7235 21.8219 23.8832 22.597 23.5203C22.9261 23.3662 23.1033 23.2083 23.1649 23.0457C23.262 23.0005 23.3568 22.9504 23.4494 22.8971Z" fill="#ADF76D"/>
<path d="M30.6203 48.9558C30.6339 49.0161 30.6415 49.0775 30.6431 49.1393C30.4491 49.2035 30.2529 49.2645 30.0548 49.324L30.0531 49.3242C29.5433 49.412 29.0711 49.4794 28.6314 49.5289C28.6157 49.488 28.6035 49.4458 28.5948 49.4029L26.9251 41.8192C26.8735 41.5847 26.9049 41.3395 27.014 41.1256C27.1231 40.9116 27.3031 40.7421 27.5232 40.6461C27.7433 40.5501 27.9899 40.5334 28.2209 40.599C28.452 40.6645 28.6531 40.8082 28.79 41.0056C28.776 41.0892 28.7588 41.1749 28.7386 41.2645C28.6839 41.5076 28.6582 41.7563 28.6619 42.0054C28.6795 42.9454 29.0326 43.6416 29.5472 44.0826L30.6203 48.9558Z" fill="#009AC1"/>
<path d="M26.4134 38.9661C27.8351 38.4809 29.1217 39.0523 28.7901 41.0057C28.6532 40.8083 28.4521 40.6646 28.221 40.5991C27.99 40.5335 27.7434 40.5502 27.5233 40.6462C27.3032 40.7423 27.1232 40.9117 27.0141 41.1257C26.905 41.3396 26.8736 41.5848 26.9252 41.8194L28.5949 49.403C28.6036 49.4459 28.6158 49.4881 28.6315 49.529C27.9789 49.6103 27.3217 49.649 26.6641 49.6449L23.9052 41.8729C23.8131 41.6137 23.6218 41.4017 23.3735 41.2835C23.1251 41.1654 22.8399 41.1507 22.5807 41.2427C22.3215 41.3348 22.1095 41.5261 21.9913 41.7744C21.8732 42.0228 21.8585 42.308 21.9505 42.5672L24.31 49.2134C22.3076 48.2923 22.7838 46.1154 21.5139 44.8941C20.6651 44.0768 20.1496 44.0068 19.7464 44.0692L18.6674 41.7653C18.5502 41.5164 18.3391 41.3241 18.0803 41.2306C17.8215 41.1371 17.5363 41.15 17.287 41.2666C17.2553 41.2807 17.2248 41.2974 17.1957 41.3163C17.0242 40.5958 17.0181 39.987 17.2009 39.7762C20.294 40.1853 23.4392 39.9087 26.4134 38.9661V38.9661Z" fill="#00CBEE"/>
<path d="M25.234 19.6045C25.3014 20.1474 25.2207 20.6984 25.0006 21.1992C24.6815 21.9184 24.137 22.5143 23.4494 22.8968C23.3485 22.8275 23.4228 22.5988 23.9213 22.0422C25.2453 20.5627 23.3336 19.9507 22.7702 19.103C22.4256 18.5869 23.0307 17.8795 23.1688 17.3799C24.2804 17.6787 25.0855 18.4109 25.234 19.6045Z" fill="#FFFFCC"/>
<path d="M22.7699 19.1031C23.3334 19.9508 25.245 20.5628 23.921 22.0423C23.4225 22.5989 23.3482 22.8276 23.4491 22.8969C23.3565 22.9502 23.2617 23.0003 23.1646 23.0455C23.5392 22.0811 19.8459 20.9925 20.1081 19.8941C20.309 19.0453 20.53 17.9103 21.1519 17.2686C21.8251 17.1768 22.5096 17.2146 23.1685 17.38C23.0304 17.8796 22.4253 18.587 22.7699 19.1031Z" fill="#FF7089"/>
<path d="M18.5032 29.4038C19.4406 30.4017 24.9901 31.1532 25.0133 31.8713C25.0179 32.0205 24.8749 32.1167 24.6164 32.1802C23.6272 32.4182 20.9454 32.1528 18.3227 32.3764C18.0939 32.3953 17.8666 32.43 17.6425 32.4801C17.3283 32.4322 17.0047 32.3784 16.6716 32.3188C14.5363 31.8548 12.8481 31.8768 11.56 32.2042C10.9478 28.9072 12.3179 27.4619 14.2684 26.8605C16.5544 26.1564 19.6361 26.6124 21.2534 26.6079C16.4993 27.0427 17.5675 28.4057 18.5032 29.4038Z" fill="#FFD797"/>
<path d="M26.7096 49.7716C26.7509 49.8859 26.7707 50.0069 26.7679 50.1283C26.0855 50.2568 25.4092 50.3636 24.749 50.4457L24.3101 49.2134C24.8698 49.4711 25.6246 49.6315 26.6642 49.6449L26.7096 49.7716Z" fill="#009AC1"/>
<path d="M23.9051 41.8726L26.664 49.6446C25.6244 49.6312 24.8696 49.4708 24.3098 49.2131L21.9504 42.5669C21.8584 42.3077 21.8731 42.0225 21.9912 41.7741C22.1094 41.5257 22.3214 41.3345 22.5806 41.2424C22.8398 41.1504 23.125 41.165 23.3734 41.2832C23.6218 41.4014 23.813 41.6134 23.9051 41.8726V41.8726Z" fill="#009AC1"/>
<path d="M20.1083 19.894C19.8462 20.9924 23.5394 22.081 23.1648 23.0454C22.7612 23.2351 22.3299 23.3593 21.8871 23.4133C21.6008 23.4497 21.3115 23.4559 21.0239 23.4319C20.3979 22.8655 20.3927 21.8021 20.0084 23.2204C19.2408 22.9643 18.5841 22.4529 18.1476 21.7714C17.9129 21.3983 17.7632 20.9782 17.7089 20.5408C17.4791 18.6938 19.0462 17.5306 21.123 17.2722L21.1522 17.2686C20.5302 17.9102 20.3092 19.0452 20.1083 19.894Z" fill="#F75C7E"/>
<path d="M20.0084 23.2205C19.4267 25.3617 26.0096 26.1745 21.2536 26.6077C19.6363 26.6122 16.5546 26.1562 14.2686 26.8603C14.5403 24.2578 16.1281 22.6445 18.1476 21.7715C18.584 22.453 19.2407 22.9643 20.0084 23.2205Z" fill="#79E8B3"/>
<path d="M24.7491 50.4457C23.9979 50.5391 23.2689 50.6002 22.5862 50.6277C22.6341 50.4062 22.6078 50.1751 22.5113 49.97L19.7466 44.0691C20.1498 44.0067 20.6653 44.0767 21.5141 44.894C22.784 46.1153 22.3078 48.2922 24.3102 49.2133L24.7491 50.4457Z" fill="#00B3DA"/>
<path d="M22.5109 49.9702C22.6074 50.1753 22.6337 50.4064 22.5857 50.6279C21.8928 50.6596 21.1985 50.6441 20.5076 50.5817L16.7881 42.6471C16.6789 42.4142 16.6601 42.1491 16.7354 41.9032C16.8106 41.6573 16.9746 41.4482 17.1955 41.3164C17.3936 42.1633 17.7643 42.9601 18.2843 43.6573C18.8945 44.433 19.2295 44.144 19.7461 44.0693L22.5109 49.9702Z" fill="#009AC1"/>
<path d="M18.6675 41.765L19.7465 44.0689C19.2299 44.1436 18.8949 44.4326 18.2846 43.6569C17.7646 42.9597 17.394 42.1628 17.1958 41.316C17.2249 41.2971 17.2554 41.2805 17.2871 41.2663C17.5364 41.1497 17.8217 41.1368 18.0804 41.2303C18.3392 41.3238 18.5503 41.5161 18.6675 41.765V41.765Z" fill="#00BFD3"/>
<path d="M16.7883 42.6469L20.5079 50.5815C19.4816 50.4793 18.6917 50.2467 18.2733 49.8651C17.0885 48.7831 13.7405 42.5332 12.2308 39.6509C11.7828 38.7941 11.4957 38.2359 11.479 38.1997C13.3058 38.9828 15.2308 39.5131 17.2008 39.7761C17.0181 39.9869 17.0242 40.5957 17.1957 41.3162C16.9748 41.448 16.8109 41.6571 16.7356 41.903C16.6603 42.1489 16.6791 42.4141 16.7883 42.6469V42.6469Z" fill="#00B3DA"/>
<path d="M21.8785 51.7352C19.9709 51.7352 18.37 51.43 17.5382 50.6697C15.9293 49.1985 11.6589 41.0547 10.8192 39.4371C10.6872 39.1808 10.6621 38.8828 10.7495 38.6081C10.8369 38.3335 11.0296 38.1047 11.2854 37.9719C11.5412 37.8391 11.8393 37.8131 12.1142 37.8997C12.3891 37.9863 12.6184 38.1783 12.752 38.4337C14.6275 42.0465 17.9843 48.1267 19.0078 49.0624C19.9301 49.9056 25.5289 49.7543 30.6866 47.9758C33.993 46.8356 35.3342 45.5836 35.4872 44.8431C35.6112 43.4708 35.3151 36.8759 35.1891 34.4266C35.1817 34.2838 35.2026 34.1409 35.2505 34.0061C35.2983 33.8714 35.3723 33.7474 35.4681 33.6412C35.6615 33.4268 35.9322 33.298 36.2206 33.2832C36.509 33.2683 36.7915 33.3687 37.006 33.5621C37.2204 33.7556 37.3492 34.0263 37.364 34.3147C37.4117 35.2421 37.8248 43.4234 37.6495 45.1069C37.6472 45.1294 37.6442 45.1519 37.6403 45.1742C37.2423 47.5491 34.0252 49.1281 31.3964 50.0346C28.682 50.9706 24.8967 51.7352 21.8785 51.7352Z" fill="#5349AD"/>
<path d="M28.4028 24.6662C28.1291 24.6659 27.8655 24.5625 27.6646 24.3767C27.4637 24.1908 27.3401 23.9361 27.3185 23.6633C27.2901 23.3055 26.4809 22.6346 24.7705 22.263C24.6304 22.233 24.4976 22.1757 24.3798 22.0942C24.2619 22.0128 24.1612 21.909 24.0836 21.7886C24.0059 21.6682 23.9528 21.5337 23.9272 21.3927C23.9016 21.2518 23.9041 21.1072 23.9345 20.9672C23.9649 20.8272 24.0226 20.6945 24.1044 20.5769C24.1861 20.4593 24.2903 20.3589 24.4109 20.2816C24.5315 20.2043 24.6661 20.1515 24.8072 20.1263C24.9482 20.1011 25.0928 20.104 25.2327 20.1349C27.8133 20.6955 29.365 21.9188 29.4895 23.4912C29.5123 23.7791 29.4198 24.0643 29.2324 24.284C29.0449 24.5037 28.7779 24.6399 28.49 24.6628C28.4607 24.6651 28.4317 24.6662 28.4028 24.6662Z" fill="#6CA1FF"/>
<path d="M14.2704 27.9499C14.2322 27.9499 14.194 27.9479 14.156 27.9439C13.8688 27.9139 13.6052 27.771 13.4233 27.5467C13.2414 27.3224 13.1561 27.035 13.1861 26.7477C13.4695 24.0345 15.0778 21.9121 17.7147 20.7716C17.9798 20.657 18.2795 20.6523 18.548 20.7587C18.8165 20.865 19.0317 21.0737 19.1464 21.3387C19.261 21.6038 19.2657 21.9035 19.1593 22.172C19.0529 22.4405 18.8443 22.6557 18.5792 22.7704C16.6418 23.6084 15.5559 25.0228 15.3522 26.974C15.3242 27.2415 15.1982 27.4892 14.9985 27.6694C14.7988 27.8496 14.5394 27.9495 14.2704 27.9499V27.9499Z" fill="#6CA1FF"/>
<path d="M20.6894 17.6217C20.4435 17.6214 20.2049 17.5379 20.0124 17.3847C19.8199 17.2316 19.685 17.0178 19.6294 16.7782C19.2744 15.2454 17.7659 15.0592 17.595 15.043C17.4524 15.0317 17.3133 14.9925 17.1859 14.9275C17.0584 14.8624 16.945 14.7729 16.8522 14.6641C16.7593 14.5552 16.6888 14.4291 16.6448 14.2929C16.6007 14.1568 16.5839 14.0133 16.5953 13.8707C16.6067 13.728 16.6461 13.589 16.7113 13.4616C16.7764 13.3343 16.8661 13.221 16.975 13.1282C17.084 13.0355 17.2102 12.9652 17.3464 12.9212C17.4826 12.8773 17.6261 12.8606 17.7687 12.8722C18.8921 12.9569 21.1704 13.7796 21.7512 16.2868C21.788 16.4465 21.7883 16.6125 21.7521 16.7724C21.7159 16.9322 21.6441 17.0819 21.542 17.2101C21.44 17.3384 21.3103 17.4421 21.1627 17.5133C21.0151 17.5846 20.8533 17.6216 20.6894 17.6217H20.6894Z" fill="#DD526A"/>
<path d="M11.5586 33.2939C11.3045 33.2935 11.0586 33.2044 10.8633 33.0418C10.668 32.8793 10.5357 32.6536 10.4893 32.4039C10.087 30.2409 10.4208 28.5332 11.4815 27.3283C13.4439 25.0987 17.2984 25.317 19.849 25.4619C20.4 25.4931 20.8731 25.5185 21.252 25.5194C23.6657 25.5147 25.3256 24.3723 27.2474 23.0496C27.4275 22.9257 27.6087 22.8014 27.7912 22.6768C29.5422 21.485 31.9312 22.2658 33.2296 23.7087C34.4557 25.0716 34.5533 26.7718 33.4783 28.0404C33.2914 28.2604 33.0249 28.3972 32.7373 28.4208C32.4497 28.4443 32.1644 28.3528 31.9443 28.1662C31.7241 27.9796 31.587 27.7132 31.5631 27.4256C31.5393 27.138 31.6305 26.8527 31.8169 26.6323C32.1753 26.2095 32.106 25.7159 31.6106 25.1653C30.9492 24.4304 29.7488 23.9787 29.0165 24.4771C28.837 24.5993 28.6589 24.7214 28.4822 24.8435C26.448 26.2435 24.3446 27.6912 21.2562 27.6972H21.2373C20.8018 27.6972 20.3026 27.6689 19.7257 27.6362C17.5966 27.5154 14.3785 27.3329 13.1161 28.7672C12.5201 29.4443 12.3566 30.5339 12.6304 32.0058C12.6595 32.163 12.6536 32.3248 12.6132 32.4795C12.5728 32.6343 12.4988 32.7782 12.3965 32.9011C12.2942 33.0241 12.1661 33.123 12.0213 33.1909C11.8765 33.2587 11.7185 33.2939 11.5586 33.2939V33.2939Z" fill="#FFC152"/>
<path d="M31.0873 45.7343C30.6453 45.7345 30.2074 45.6506 29.7967 45.4873C28.4347 44.9461 27.6039 43.6519 27.5741 42.0252C27.5679 41.6875 27.6027 41.3504 27.6778 41.0211C27.8304 40.352 27.7212 40.0405 27.6422 39.9693C27.5539 39.89 27.2478 39.8324 26.7654 39.9972C26.7581 39.9997 26.7509 40.002 26.7436 40.0044C22.2249 41.4245 17.3736 41.3852 12.8786 39.8919C12.8471 39.9756 12.8069 40.0556 12.7586 40.1308C12.6399 40.3189 12.4746 40.4731 12.2788 40.5785C12.0829 40.6839 11.8631 40.7368 11.6408 40.7322C11.6179 40.7319 11.5951 40.7308 11.5724 40.7291C10.6888 40.6787 9.83703 40.3821 9.11331 39.8728C8.38958 39.3635 7.8228 38.6618 7.47709 37.8471C7.13726 37.0549 7.02258 36.1843 7.14567 35.331C7.26876 34.4778 7.62484 33.6751 8.17474 33.0112C9.13062 31.8572 11.5316 30.0953 16.8825 31.2506C24.3735 32.5882 26.2786 30.8944 28.4836 28.9334C29.0734 28.3898 29.6938 27.8805 30.3418 27.4079C32.898 25.6008 35.3957 25.2266 37.1945 26.3821C38.5941 27.281 39.9465 29.2967 39.8237 31.4099C39.7335 32.9634 38.836 34.2335 37.2964 34.9864C36.8564 35.1673 36.3982 35.3005 35.9298 35.3839C35.477 35.487 34.6341 35.6789 34.4191 35.8246C34.1871 36.0035 34.0206 36.254 33.9457 36.5372C33.8707 36.8204 33.8913 37.1205 34.0044 37.3908C34.6166 38.841 35.8095 42.4499 33.6704 44.6349C33.3347 44.981 32.9334 45.2565 32.4898 45.4453C32.0462 45.6341 31.5694 45.7324 31.0873 45.7343ZM27.329 37.7126C27.978 37.696 28.6096 37.9236 29.0988 38.3505C29.5394 38.7469 30.2164 39.684 29.801 41.5058C29.7651 41.663 29.7485 41.8239 29.7515 41.9851C29.7652 42.7262 30.0668 43.2512 30.6008 43.4634C30.8596 43.5608 31.1415 43.5793 31.4109 43.5166C31.6802 43.454 31.925 43.3129 32.1143 43.1113C32.9636 42.2439 32.9202 40.422 31.9982 38.2378C31.698 37.523 31.6428 36.7288 31.8415 35.9793C32.0401 35.2298 32.4813 34.5672 33.0962 34.0949C33.6085 33.7004 34.3935 33.5002 35.4464 33.2605C35.7493 33.1992 36.0488 33.1217 36.3435 33.0284C37.1766 32.6208 37.6052 32.0495 37.6497 31.2836C37.7197 30.0803 36.8569 28.7536 36.0178 28.2144C34.5774 27.2896 32.448 28.5859 31.5991 29.1861C31.0175 29.6123 30.4605 30.0712 29.9309 30.5606C27.5208 32.7044 25.028 34.9211 16.4795 33.3909C16.4665 33.3885 16.4534 33.3859 16.4405 33.3832C13.3456 32.7115 10.9436 33.0823 9.85204 34.4003C9.62976 34.6736 9.46663 34.99 9.37296 35.3296C9.2793 35.6691 9.25715 36.0245 9.30791 36.373C9.35867 36.7216 9.48123 37.0558 9.66785 37.3546C9.85447 37.6534 10.1011 37.9101 10.3921 38.1086C10.4062 37.9368 10.4609 37.7707 10.5518 37.6241C10.6426 37.4776 10.767 37.3547 10.9146 37.2656C11.0623 37.1765 11.229 37.1237 11.401 37.1116C11.573 37.0995 11.7454 37.1285 11.9041 37.1961C16.3864 39.1304 21.414 39.3917 26.0726 37.9325C26.4766 37.7912 26.901 37.7169 27.329 37.7126V37.7126Z" fill="#EA6CA5"/>
<path d="M21.0048 23.8452C19.9833 23.8511 18.9841 23.5468 18.1393 22.9725C17.6335 22.6365 17.2058 22.1958 16.885 21.6801C16.5642 21.1645 16.3578 20.5861 16.2799 19.9838C16.1989 19.3964 16.2662 18.798 16.4755 18.2432C16.6849 17.6884 17.0296 17.1947 17.4785 16.8071C18.2583 16.1133 19.3516 15.6618 20.6404 15.5015C23.5358 15.1405 25.6773 16.458 25.9661 18.7787C26.0381 19.3817 25.9798 19.9931 25.7951 20.5716C25.6104 21.1501 25.3037 21.6822 24.8957 22.1319C24.0625 23.0649 22.9159 23.6598 21.6733 23.8036C21.4515 23.8313 21.2283 23.8451 21.0048 23.8452ZM21.5326 17.6255C21.3242 17.6253 21.1161 17.6377 20.9093 17.6626C20.0726 17.7666 19.3682 18.0407 18.9261 18.4342C18.7396 18.586 18.5965 18.7845 18.5113 19.0094C18.4262 19.2343 18.4019 19.4777 18.441 19.715C18.4828 20.0113 18.5877 20.2953 18.7485 20.5477C18.9094 20.8 19.1224 21.015 19.3734 21.1781C19.9748 21.5665 20.6938 21.7309 21.4043 21.6425C22.1148 21.5541 22.7715 21.2186 23.2595 20.6946C23.4628 20.475 23.6168 20.2144 23.7109 19.9303C23.805 19.6462 23.8371 19.3453 23.805 19.0477C23.6529 17.826 22.3627 17.6255 21.5326 17.6255V17.6255Z" fill="#DD526A"/>
<path d="M33.8618 27.0559C34.0153 27.0366 34.1711 27.0633 34.3094 27.1326C34.4478 27.2019 34.5625 27.3107 34.639 27.4452C34.7155 27.5798 34.7503 27.7339 34.7391 27.8883C34.728 28.0426 34.6713 28.1901 34.5762 28.3122C34.4811 28.4343 34.3519 28.5255 34.2051 28.5741C34.0582 28.6228 33.9001 28.6267 33.751 28.5856C33.6018 28.5444 33.4682 28.4598 33.3671 28.3427C33.266 28.2256 33.202 28.0811 33.183 27.9275C33.1579 27.722 33.2152 27.5149 33.3424 27.3516C33.4696 27.1882 33.6564 27.0819 33.8618 27.0559V27.0559Z" fill="#79E8B3"/>
<path d="M29.9115 31.0668C30.0232 31.053 30.1365 31.0727 30.237 31.1233C30.3375 31.1739 30.4208 31.2532 30.4763 31.3511C30.5318 31.449 30.5571 31.5612 30.5489 31.6734C30.5407 31.7857 30.4994 31.893 30.4302 31.9818C30.3611 32.0706 30.2672 32.1369 30.1603 32.1723C30.0535 32.2078 29.9386 32.2108 29.8301 32.181C29.7215 32.1512 29.6243 32.0899 29.5506 32.0048C29.4769 31.9197 29.43 31.8148 29.416 31.7031C29.3973 31.553 29.4391 31.4017 29.532 31.2823C29.6249 31.163 29.7614 31.0855 29.9115 31.0668V31.0668Z" fill="#ADF76D"/>
<path d="M27.5113 23.168C28.0069 23.1064 28.45 23.3926 28.5016 23.8076C28.5531 24.2209 28.1936 24.6069 27.698 24.6686C27.2041 24.73 26.7609 24.4438 26.7095 24.0305C26.6579 23.6155 27.0174 23.2295 27.5113 23.168Z" fill="#9B8DFF"/>
<path d="M28.1313 26.7519C28.2464 26.7378 28.3631 26.7581 28.4667 26.8102C28.5703 26.8624 28.6561 26.944 28.7133 27.0449C28.7705 27.1458 28.7965 27.2614 28.788 27.377C28.7796 27.4927 28.737 27.6032 28.6658 27.6947C28.5945 27.7862 28.4978 27.8546 28.3877 27.8911C28.2777 27.9276 28.1592 27.9307 28.0474 27.9C27.9356 27.8693 27.8354 27.8061 27.7595 27.7184C27.6835 27.6308 27.6353 27.5226 27.6208 27.4076C27.6112 27.331 27.6168 27.2533 27.6372 27.1788C27.6577 27.1044 27.6927 27.0348 27.7401 26.9739C27.7875 26.913 27.8465 26.8621 27.9136 26.824C27.9807 26.7859 28.0547 26.7614 28.1313 26.7519V26.7519Z" fill="#79E8B3"/>
<path d="M26.7007 35.5624C27.0042 35.5246 27.274 35.6774 27.3024 35.9055C27.3306 36.1318 27.1067 36.3478 26.8031 36.3855C26.4996 36.4233 26.2313 36.2686 26.2031 36.0422C26.1747 35.8142 26.3971 35.6001 26.7007 35.5624Z" fill="#FF7690"/>
<path d="M23.1011 23.4574C23.2006 23.4452 23.3014 23.4627 23.391 23.5078C23.4805 23.5529 23.5547 23.6235 23.6041 23.7107C23.6535 23.7979 23.676 23.8978 23.6687 23.9978C23.6614 24.0978 23.6246 24.1934 23.563 24.2725C23.5014 24.3515 23.4178 24.4106 23.3226 24.4422C23.2275 24.4738 23.1251 24.4765 23.0285 24.4499C22.9318 24.4234 22.8452 24.3688 22.7795 24.293C22.7139 24.2173 22.6721 24.1238 22.6596 24.0243C22.6431 23.8906 22.6803 23.7558 22.7631 23.6495C22.8458 23.5432 22.9674 23.4741 23.1011 23.4574V23.4574Z" fill="#FF9CB4"/>
<path d="M21.3781 28.0132C21.8738 27.9516 22.3169 28.2378 22.3683 28.6511C22.4199 29.0661 22.0605 29.4521 21.5648 29.5138C21.0709 29.5753 20.6278 29.2891 20.5762 28.874C20.5248 28.4607 20.8842 28.0747 21.3781 28.0132Z" fill="#FF97FF"/>
<path d="M19.5354 34.2401C19.6719 34.2233 19.8103 34.2473 19.9331 34.3091C20.056 34.3709 20.1577 34.4677 20.2255 34.5873C20.2934 34.7069 20.3242 34.844 20.3142 34.9811C20.3042 35.1182 20.2538 35.2493 20.1693 35.3578C20.0848 35.4663 19.9701 35.5473 19.8396 35.5906C19.7091 35.6339 19.5686 35.6376 19.4361 35.6011C19.3035 35.5647 19.1847 35.4898 19.0946 35.3858C19.0046 35.2819 18.9474 35.1536 18.9303 35.0172C18.9188 34.9264 18.9254 34.8342 18.9496 34.746C18.9738 34.6578 19.0153 34.5752 19.0715 34.503C19.1277 34.4308 19.1976 34.3704 19.2772 34.3253C19.3569 34.2802 19.4446 34.2512 19.5354 34.2401V34.2401Z" fill="#86F1F7"/>
<path d="M17.8998 24.1048C18.0209 24.0898 18.1437 24.1109 18.2527 24.1657C18.3618 24.2204 18.4522 24.3063 18.5124 24.4124C18.5727 24.5185 18.6001 24.6401 18.5913 24.7618C18.5824 24.8835 18.5377 24.9998 18.4627 25.0961C18.3877 25.1924 18.2859 25.2643 18.1701 25.3027C18.0543 25.3411 17.9297 25.3442 17.812 25.3118C17.6944 25.2794 17.589 25.2128 17.5092 25.1205C17.4294 25.0282 17.3788 24.9143 17.3637 24.7932C17.3536 24.7128 17.3594 24.6312 17.3809 24.553C17.4023 24.4748 17.439 24.4017 17.4888 24.3377C17.5386 24.2738 17.6006 24.2203 17.6711 24.1803C17.7416 24.1403 17.8193 24.1147 17.8998 24.1048V24.1048Z" fill="#EF84D6"/>
<path d="M15.1202 29.2271C15.2574 29.2099 15.3967 29.2337 15.5204 29.2957C15.6441 29.3576 15.7466 29.4549 15.815 29.5751C15.8834 29.6954 15.9145 29.8332 15.9046 29.9712C15.8946 30.1092 15.8439 30.2411 15.7589 30.3502C15.6739 30.4593 15.5584 30.5408 15.4271 30.5843C15.2958 30.6278 15.1545 30.6314 15.0212 30.5945C14.8879 30.5577 14.7685 30.4821 14.6781 30.3774C14.5877 30.2727 14.5305 30.1435 14.5136 30.0062C14.4909 29.8225 14.542 29.6372 14.6557 29.4912C14.7695 29.3451 14.9365 29.2502 15.1202 29.2271V29.2271Z" fill="#50C5FF"/>
<path d="M11.555 32.6088C11.6997 32.5906 11.8466 32.6158 11.977 32.6811C12.1074 32.7464 12.2155 32.849 12.2876 32.9757C12.3597 33.1025 12.3925 33.2478 12.382 33.3933C12.3715 33.5388 12.318 33.6779 12.2284 33.7929C12.1388 33.908 12.0171 33.9939 11.8786 34.0398C11.7402 34.0856 11.5912 34.0894 11.4506 34.0505C11.3101 34.0117 11.1842 33.932 11.0889 33.8216C10.9936 33.7112 10.9332 33.575 10.9154 33.4302C10.9034 33.3343 10.9104 33.2369 10.936 33.1437C10.9617 33.0504 11.0055 32.9632 11.0649 32.8869C11.1243 32.8106 11.1982 32.7468 11.2823 32.699C11.3664 32.6513 11.4591 32.6206 11.555 32.6088Z" fill="#FFE56E"/>
<path d="M48.42 66.8071C53.8644 67.6236 53.4596 83.0943 49.765 85.4279C49.4447 85.6285 49.1033 85.7934 48.747 85.9197C48.8379 85.7076 48.8493 85.4699 48.779 85.2501C50.1022 82.7771 50.487 77.8049 49.2871 74.532C48.9972 73.7781 48.771 73.0011 48.611 72.2093C48.7594 72.2982 48.9094 72.2682 49.0696 72.0804C49.3361 71.7669 48.9286 71.3231 48.4909 70.9782C48.4964 70.0429 48.7162 69.5484 48.2559 68.2532C48.1361 67.9453 47.9532 67.6659 47.7188 67.4332C47.99 67.2707 48.2279 67.0583 48.42 66.8071V66.8071Z" fill="#FFFFCC"/>
<path d="M48.4912 70.9785C48.9289 71.3234 49.3364 71.7672 49.0699 72.0807C48.9097 72.2685 48.7597 72.2985 48.6113 72.2097C48.5321 71.8041 48.4919 71.3918 48.4912 70.9785V70.9785Z" fill="#FFFFCC"/>
<path d="M49.2875 74.532C50.4874 77.8048 50.1026 82.7771 48.7794 85.25C48.4408 84.0253 46.1558 82.4964 42.8731 82.6539C37.7983 82.8971 37.7104 77.1355 38.8227 76.2655C39.9353 75.3971 44.0925 74.2777 43.8551 72.1629C43.6179 70.0497 45.2722 68.9409 46.8471 67.8739L46.8487 67.8737C47.1513 67.7527 47.4426 67.6053 47.7192 67.4331C47.9536 67.6659 48.1366 67.9452 48.2563 68.2531C48.7166 69.5483 48.4968 70.0428 48.4913 70.9781C48.3682 70.8799 48.2427 70.7901 48.1286 70.7139C48.0983 70.6937 48.0624 70.6837 48.026 70.6853C47.9897 70.687 47.9548 70.7002 47.9264 70.7231C47.8981 70.7459 47.8778 70.7772 47.8685 70.8124C47.8592 70.8476 47.8614 70.8849 47.8747 70.9188C48.1195 71.5573 48.3587 72.058 48.6114 72.2093C48.7714 73.0011 48.9976 73.778 49.2875 74.532V74.532Z" fill="#FF7089"/>
<path d="M42.1162 64.8229C47.334 64.1927 49.3481 65.5261 48.4204 66.8073C48.2283 67.0584 47.9904 67.2709 47.7191 67.4333C46.5733 66.2283 44.0624 65.2424 42.1162 64.8229Z" fill="#FFFFCC"/>
<path d="M48.4908 70.9785C48.4915 71.3918 48.5317 71.8041 48.6109 72.2097C48.3581 72.0584 48.1189 71.5577 47.8742 70.9192C47.8608 70.8853 47.8587 70.848 47.868 70.8128C47.8773 70.7776 47.8976 70.7463 47.9259 70.7235C47.9543 70.7006 47.9892 70.6874 48.0255 70.6857C48.0619 70.6841 48.0978 70.6941 48.1281 70.7143C48.2422 70.7905 48.3677 70.8802 48.4908 70.9785Z" fill="#FFFB64"/>
<path d="M47.7188 67.4332C47.4422 67.6053 47.1509 67.7528 46.8484 67.8738C48.4152 66.8077 40.9424 67.1899 38.8988 68.7661C37.1995 70.0762 38.04 66.8282 39.0674 65.3479C40.184 65.1039 41.2001 64.9321 42.1159 64.8228C44.0621 65.2423 46.573 66.2281 47.7188 67.4332Z" fill="#ADF76D"/>
<path d="M38.899 68.7663C40.9427 67.1901 48.4154 66.8079 46.8486 67.874L46.847 67.8742C45.7799 68.3105 44.2441 68.6395 42.2578 68.7289C42.5279 70.2976 38.7901 75.1534 37.6841 71.087C35.7752 73.1295 34.1712 74.0102 33.1294 74.0694C30.7921 74.2048 31.2833 70.2097 37.5213 65.9503C37.8901 65.6993 38.3028 65.5199 38.7379 65.4214C38.8487 65.3958 38.9582 65.372 39.0676 65.3481C38.0402 66.8285 37.1997 70.0764 38.899 68.7663Z" fill="#7FF46E"/>
<path d="M48.7791 85.2502C48.6243 85.5481 48.4348 85.8267 48.2145 86.0801C42.1329 87.62 31.1915 80.716 33.1292 74.0693C34.171 74.01 35.7751 73.1293 37.6839 71.0868C38.7899 75.1533 42.5277 70.2975 42.2577 68.7288C44.244 68.6393 45.7797 68.3103 46.8468 67.874C45.2719 68.941 43.6176 70.0499 43.8548 72.163C44.0922 74.2778 39.935 75.3973 38.8225 76.2657C37.7101 77.1356 37.798 82.8973 42.8729 82.654C46.1555 82.4966 48.4405 84.0254 48.7791 85.2502Z" fill="#EF606E"/>
<path d="M37.0652 76.954C37.0152 76.9082 36.953 76.8776 36.8861 76.8661C36.8193 76.8545 36.7505 76.8623 36.6879 76.8886C36.6253 76.9149 36.5716 76.9587 36.5332 77.0146C36.4947 77.0705 36.4731 77.1363 36.4709 77.2041C36.4354 78.6864 37.2436 79.1496 37.6213 78.3774C37.8739 77.8609 37.4539 77.3156 37.0652 76.954Z" fill="#FFFB64"/>
<path d="M41.1114 74.5173C40.8627 74.3458 40.5673 74.5488 40.5595 74.8508C40.5356 75.7708 41.6056 76.664 41.8676 75.8453C42.0429 75.2977 41.5484 74.8189 41.1114 74.5173Z" fill="#FFFB64"/>
<path d="M40.638 79.9155C40.5964 79.8835 40.5468 79.8637 40.4947 79.8584C40.4426 79.8531 40.39 79.8624 40.3429 79.8852C40.2957 79.9081 40.2559 79.9437 40.2279 79.988C40.1998 80.0322 40.1847 80.0834 40.1841 80.1358C40.1813 80.9187 40.4843 81.9777 41.3653 81.5808C42.1593 81.2232 41.2222 80.3657 40.638 79.9155Z" fill="#FFFB64"/>
<path d="M44.5596 77.7642C44.5318 77.7409 44.4973 77.7269 44.461 77.7245C44.4248 77.7221 44.3887 77.7312 44.358 77.7506C44.3273 77.7701 44.3036 77.7987 44.2902 77.8325C44.2769 77.8663 44.2747 77.9035 44.2839 77.9386C44.5542 78.9856 44.8525 79.6872 45.3411 79.2272C45.7245 78.8662 45.0351 78.1695 44.5596 77.7642Z" fill="#FFFB64"/>
<path d="M43.9085 71.3685C43.9039 71.3448 43.9051 71.3202 43.9119 71.297C43.9188 71.2738 43.931 71.2525 43.9477 71.2349C43.9644 71.2174 43.985 71.204 44.0079 71.196C44.0308 71.1881 44.0552 71.1856 44.0792 71.1889C44.8983 71.3178 45.9222 72.0461 45.0654 72.6454C44.3139 73.171 44.0008 71.8812 43.9085 71.3685Z" fill="#FFFB64"/>
<path d="M46.352 74.3577C46.3177 74.3417 46.2794 74.336 46.2419 74.3413C46.2044 74.3466 46.1692 74.3627 46.1407 74.3876C46.1122 74.4125 46.0915 74.4452 46.0811 74.4816C46.0708 74.5181 46.0713 74.5567 46.0825 74.5929C46.2226 75.0493 46.808 75.888 47.126 75.5672C47.6004 75.0885 46.7563 74.5483 46.352 74.3577Z" fill="#FFFB64"/>
<path d="M48.751 78.2393C48.7222 78.2184 48.6881 78.2059 48.6525 78.2032C48.617 78.2005 48.5813 78.2078 48.5497 78.2242C48.518 78.2406 48.4915 78.2654 48.4732 78.296C48.4548 78.3266 48.4454 78.3617 48.4458 78.3973C48.4675 79.9427 48.7562 80.2437 49.2541 79.522C49.6175 78.9953 49.1113 78.5011 48.751 78.2393Z" fill="#FFFB64"/>
<path d="M44.4816 82.3544C44.437 82.3245 44.3847 82.3084 44.3311 82.3081C44.2775 82.3078 44.225 82.3233 44.1801 82.3526C44.1353 82.382 44.1 82.4239 44.0789 82.4731C44.0577 82.5224 44.0515 82.5767 44.061 82.6295C44.1838 83.3373 44.6848 84.1635 45.3419 83.7576C45.9006 83.4125 45.0449 82.7316 44.4816 82.3544Z" fill="#FFFB64"/>
<path d="M47.9125 82.8674C47.8899 82.8492 47.8621 82.8386 47.8331 82.8371C47.8042 82.8356 47.7754 82.8433 47.7511 82.859C47.7267 82.8748 47.7079 82.8978 47.6974 82.9249C47.6869 82.9519 47.6851 82.9816 47.6924 83.0097C48.0246 84.3097 48.2257 84.5897 48.6085 84.1293C48.8967 83.7827 48.307 83.1976 47.9125 82.8674Z" fill="#FFFB64"/>
<path d="M46.3554 87.3892C45.4537 87.3827 44.5553 87.2783 43.6761 87.078C41.1748 86.4946 38.824 85.3919 36.7762 83.8415C32.8591 80.8912 31.1051 77.124 32.0844 73.7645C32.1655 73.4875 32.3532 73.2541 32.6063 73.1154C32.8594 72.9767 33.1572 72.9442 33.4342 73.025C33.7113 73.1058 33.9449 73.2932 34.0839 73.5461C34.2228 73.7991 34.2557 74.0968 34.1752 74.374C33.4594 76.8293 34.9216 79.7182 38.0865 82.1019C41.8989 84.9733 46.773 86.0303 49.1838 84.5078C50.9029 83.4219 52.1178 77.2493 51.0525 72.1812C50.7994 70.9774 50.0205 68.1488 48.2592 67.8845C47.9736 67.8416 47.7167 67.6871 47.5451 67.4548C47.3735 67.2225 47.3011 66.9316 47.344 66.646C47.3869 66.3604 47.5414 66.1036 47.7737 65.9319C48.006 65.7603 48.2969 65.6879 48.5825 65.7308C50.806 66.0645 52.44 68.1962 53.1837 71.7333C54.2843 76.9683 53.2847 84.4932 50.3468 86.349C49.2528 87.04 47.8996 87.3892 46.3554 87.3892Z" fill="#EA4B5F"/>
<path d="M33.0107 75.1621C32.7549 75.1637 32.5003 75.1267 32.2556 75.0521C31.8644 74.9334 31.5164 74.703 31.2545 74.3891C30.9926 74.0752 30.8282 73.6916 30.7815 73.2855C30.4464 71.0533 32.851 67.8211 36.9074 65.0511H36.9075C37.3888 64.722 37.9281 64.4871 38.4969 64.359C43.9212 63.1314 47.9485 63.3609 49.2708 64.9727C49.5094 65.251 49.6627 65.5921 49.7125 65.9552C49.7623 66.3184 49.7065 66.6882 49.5517 67.0204C48.905 68.4708 46.5659 69.4712 43.2174 69.7578C42.7515 71.3741 41.1959 73.3545 39.6202 73.7034C39.2105 73.798 38.7825 73.7746 38.3856 73.6361C37.9886 73.4975 37.639 73.2494 37.3772 72.9205C35.7635 74.3812 34.2429 75.1621 33.0107 75.1621ZM32.9353 72.9825C33.3057 73.063 34.7675 72.6144 36.888 70.3446C37.0204 70.2029 37.1882 70.0991 37.3741 70.0439C37.56 69.9888 37.7573 69.9843 37.9455 70.0309C38.1338 70.0775 38.3061 70.1735 38.4448 70.3091C38.5835 70.4446 38.6835 70.6147 38.7344 70.8018C38.9146 71.4637 39.1112 71.5872 39.1131 71.5883H39.1137C39.1543 71.5883 39.4476 71.517 39.9043 71.0793C40.7167 70.3009 41.2011 69.2095 41.1835 68.8985C41.1575 68.7474 41.1642 68.5924 41.2032 68.4441C41.2422 68.2958 41.3125 68.1576 41.4095 68.0388C41.5069 67.9194 41.6287 67.8222 41.7667 67.7537C41.9047 67.6851 42.0557 67.6468 42.2097 67.6412C45.4958 67.4932 47.0781 66.6721 47.4735 66.2569C46.9156 65.8919 44.5475 65.2224 38.9776 66.483C38.6762 66.5509 38.3904 66.6753 38.1354 66.8496C33.6504 69.9123 32.7908 72.4632 32.9353 72.9825V72.9825Z" fill="#0DA053"/>
<path d="M38.0714 66.7322C38.0668 66.7322 38.062 66.7322 38.0574 66.7321C37.7894 66.7287 37.5321 66.6266 37.3346 66.4453C37.1372 66.264 37.0136 66.0163 36.9875 65.7495C36.7239 63.0572 34.082 61.3901 34.0554 61.3736C33.9081 61.2824 33.7847 61.1575 33.6953 61.0092C33.6058 60.8609 33.553 60.6934 33.5411 60.5206C33.5293 60.3478 33.5587 60.1747 33.627 60.0155C33.6954 59.8564 33.8006 59.7158 33.934 59.6054L34.409 59.2145C34.6377 59.0264 34.9056 58.8917 35.1931 58.8204C35.4805 58.749 35.7803 58.7427 36.0705 58.8019C36.3607 58.8612 36.634 58.9845 36.8704 59.1628C37.1069 59.3411 37.3005 59.57 37.4373 59.8327C38.3408 61.5643 39.3716 64.0011 39.152 65.777C39.1193 66.0406 38.9915 66.2832 38.7925 66.4591C38.5935 66.635 38.337 66.7322 38.0714 66.7322V66.7322Z" fill="#0DA053"/>
<path d="M88.8469 43.1742C88.2249 40.3109 86.1349 37.6581 84.4233 36.1509C91.6033 41.9091 94.1739 52.4317 87.0148 58.6728C87.1119 58.5484 87.1082 58.4642 86.9566 58.4472C86.1118 58.3492 87.9088 54.7605 88.5084 53.1243C89.108 51.4882 86.6412 52.0773 86.6412 52.0773C86.6411 52.0767 86.6412 52.0761 86.6414 52.0754C86.6415 52.0748 86.6418 52.0743 86.6422 52.0738C88.9245 49.5507 89.4937 46.1521 88.8469 43.1742Z" fill="#FFFFCC"/>
<path d="M84.4233 36.1508C86.1348 37.658 88.2248 40.3108 88.8468 43.1741C89.4937 46.152 88.9245 49.5506 86.6422 52.0737C86.6716 51.9906 87.2353 50.374 85.9496 50.0119C84.6305 49.6388 86.8038 46.3448 86.6304 44.6051C86.4587 42.8649 85.5492 43.419 84.8055 40.9452C82.1109 34.8956 76.7408 32.8038 71.0005 31.4204C75.8756 32.0739 80.352 33.372 82.966 35.0914C83.4709 35.4231 83.9566 35.7763 84.4233 36.1508Z" fill="#FFFFCC"/>
<path d="M86.641 52.0774C86.641 52.0774 89.1079 51.4882 88.5083 53.1244C87.9087 54.7605 86.1116 58.3492 86.9565 58.4472C87.1081 58.4643 87.1118 58.5484 87.0146 58.6728C86.6052 59.0305 86.1762 59.3651 85.7295 59.6749C85.7197 59.6804 85.712 59.6871 85.704 59.6921C85.0373 60.1285 84.3334 60.5446 84.1034 60.6795C84.0873 60.6896 84.0726 60.6978 84.0611 60.7037C84.0501 60.7107 84.0387 60.7171 84.0269 60.7227C82.0046 61.8537 79.7954 62.6117 77.5047 62.9608C78.1836 61.9754 73.1157 60.4509 69.9255 59.7946C66.1481 59.016 62.215 57.0834 63.239 56.073C64.0619 55.263 64.6785 54.2011 63.8513 52.9566C66.4659 54.1803 69.2381 55.0341 72.0881 55.4935C79.4876 56.5964 84.1145 54.8717 86.641 52.0774ZM78.8615 60.5821C80.1024 60.1243 79.5734 59.1098 78.0771 59.3415C77.1318 59.4869 77.6207 61.0399 78.8615 60.5821ZM73.0949 58.9179C73.5309 58.8232 73.9441 57.699 72.2528 57.5966C71.6031 57.5562 72.659 59.0126 73.0949 58.9179V58.9179Z" fill="#ADF76D"/>
<path d="M76.7242 49.3206L76.7259 49.3202C76.9463 49.3007 77.1597 49.2743 77.3644 49.2415C82.8837 48.4057 82.7817 44.2034 82.7464 43.6713L82.7451 43.665C82.6851 39.3036 77.8916 34.6711 72.2489 34.7541C72.2012 34.7528 72.1541 34.7547 72.107 34.7566C69.3989 34.8317 66.5039 35.997 63.8477 38.7995C63.0774 38.9102 62.6745 39.4508 62.62 40.2339C62.4139 43.1522 67.0285 49.4327 75.4 49.3867C75.8707 49.3844 76.312 49.3624 76.7242 49.3206ZM84.8057 40.9452C85.5494 43.419 86.4589 42.8649 86.6306 44.605C86.804 46.3448 84.6307 49.6387 85.9498 50.0119C87.2354 50.3739 86.6718 51.9906 86.6423 52.0736C86.6419 52.0741 86.6416 52.0747 86.6414 52.0753C86.6413 52.0759 86.6412 52.0766 86.6413 52.0772C84.1148 54.8715 79.4879 56.5962 72.0884 55.4933C69.2384 55.0339 66.4661 54.1801 63.8515 52.9564C63.6057 52.5996 63.3082 52.2814 62.9689 52.012C60.968 50.3577 67.1127 52.0647 62.8755 48.2193C58.6365 44.3742 53.6554 41.2234 56.0081 37.419C58.3612 33.6162 65.1915 34.6712 63.3618 33.3762C62.347 32.6555 62.1692 31.5514 63.3246 30.9522C65.8913 30.9206 68.4569 31.0771 71.0007 31.4204C76.741 32.8038 82.1111 34.8956 84.8057 40.9452V40.9452ZM62.6009 36.7582C64.0557 35.9741 62.8086 35.3355 61.6569 35.7922C60.6096 36.2079 61.146 37.5423 62.6009 36.7582V36.7582ZM57.2221 40.2337C58.0141 40.0883 58.4918 39.5132 57.251 38.4667C56.7637 38.0561 56.4284 40.3795 57.2221 40.2337V40.2337Z" fill="#FBF082"/>
<path d="M82.7451 43.6649L82.7465 43.6713C82.7817 44.2034 82.8838 48.4057 77.3645 49.2415C82.5915 46.5052 79.304 43.1398 79.3896 42.1217C79.512 40.6758 76.3268 38.6808 74.9104 38.3305C73.519 37.9863 74.8294 34.7549 72.249 34.754C77.8917 34.6711 82.6852 39.3036 82.7451 43.6649Z" fill="#FFFFCC"/>
<path d="M74.91 38.3303C76.3265 38.6806 79.5117 40.6756 79.3893 42.1215C79.3037 43.1396 82.5912 46.505 77.3642 49.2413C77.1595 49.2741 76.9461 49.3004 76.7257 49.32C80.3843 47.719 77.1161 46.8214 74.1992 45.7593C71.1758 44.6602 65.9811 44.0062 67.7365 42.1174C69.4918 40.2285 70.0803 40.3822 68.7443 39.5447C67.408 38.7055 69.3386 34.8746 72.1068 34.7563C72.1539 34.7544 72.2009 34.7526 72.2487 34.7538C74.8291 34.7547 73.5187 37.9862 74.91 38.3303ZM75.325 44.9817C76.6681 44.3134 76.3318 43.1605 74.4248 43.1999C73.6505 43.2165 73.9802 45.6503 75.325 44.9817V44.9817ZM70.7819 42.8468C71.4958 42.3336 71.4967 41.867 70.4934 41.5185C69.5688 41.1963 70.0676 43.3584 70.7819 42.8468Z" fill="#E88F52"/>
<path d="M74.1994 45.7593C77.1163 46.8215 80.3845 47.719 76.7259 49.32L76.7241 49.3204C76.3113 49.3618 75.8699 49.3838 75.4 49.3865C67.0285 49.4325 62.4138 43.152 62.6199 40.2337L62.6216 40.2333C63.0056 39.7348 63.4148 39.2561 63.8477 38.7993C66.5039 35.9968 69.3989 34.8315 72.107 34.7563C69.3388 34.8746 67.4082 38.7055 68.7445 39.5447C70.0805 40.3822 69.492 40.2285 67.7366 42.1174C65.9812 44.0062 71.176 44.6603 74.1994 45.7593Z" fill="#D37D42"/>
<path d="M78.0772 59.3416C79.5735 59.1098 80.1024 60.1243 78.8616 60.5821C77.6207 61.0399 77.1319 59.4869 78.0772 59.3416Z" fill="#66E250"/>
<path d="M74.4249 43.2002C76.3319 43.1608 76.6682 44.3138 75.3251 44.982C73.9802 45.6506 73.6506 43.2168 74.4249 43.2002Z" fill="#D37D42"/>
<path d="M69.9255 59.7942C73.1158 60.4506 78.1837 61.975 77.5048 62.9604C68.5751 64.3038 60.2581 58.994 55.8016 54.5849C50.0866 48.9298 44.7816 41.8331 49.4841 35.2611C49.8279 34.7919 50.2371 34.3743 50.6993 34.021C46.3568 39.9134 54.264 48.5655 63.8513 52.9562C64.6786 54.2008 64.062 55.2626 63.2391 56.0727C62.215 57.0831 66.1481 59.0156 69.9255 59.7942Z" fill="#66E250"/>
<path d="M70.4937 41.5188C71.497 41.8672 71.4961 42.3338 70.7822 42.847C70.068 43.3587 69.569 41.1965 70.4937 41.5188Z" fill="#D37D42"/>
<path d="M72.2529 57.5965C73.9442 57.6989 73.531 58.8231 73.095 58.9178C72.6591 59.0125 71.6032 57.5561 72.2529 57.5965Z" fill="#66E250"/>
<path d="M63.3617 33.3762C65.1915 34.6712 58.3612 33.6161 56.0081 37.4189C53.6553 41.2233 58.6365 44.3741 62.8754 48.2192C67.1127 52.0647 60.9679 50.3577 62.9689 52.0119C63.3082 52.2813 63.6056 52.5996 63.8515 52.9563C54.2642 48.5655 46.357 39.9135 50.6994 34.0211C53.3291 31.9623 58.1243 31.029 63.3246 30.9521C62.1692 31.5513 62.3469 32.6554 63.3617 33.3762Z" fill="#F7E159"/>
<path d="M62.6201 40.2337C62.6746 39.4506 63.0776 38.91 63.8479 38.7993C63.4151 39.2562 63.0059 39.7348 62.6219 40.2334L62.6201 40.2337Z" fill="#D37D42"/>
<path d="M61.6568 35.792C62.8084 35.3353 64.0556 35.9739 62.6007 36.7581C61.1458 37.5422 60.6094 36.2078 61.6568 35.792Z" fill="#F7E159"/>
<path d="M57.2507 38.4667C58.4915 39.5132 58.0138 40.0883 57.2219 40.2337C56.4282 40.3795 56.7635 38.0561 57.2507 38.4667Z" fill="#F7E159"/>
<path d="M76.3726 56.92C74.8842 56.913 73.3983 56.7959 71.9272 56.5697C62.4409 55.1552 52.0147 48.1558 49.1599 41.2855C47.9411 38.3523 48.1704 35.6167 49.8228 33.3745C49.9942 33.1421 50.2508 32.9872 50.5364 32.9439C50.8219 32.9007 51.1129 32.9726 51.3454 33.144C51.5779 33.3153 51.7328 33.572 51.776 33.8575C51.8193 34.143 51.7473 34.4341 51.576 34.6665C50.3845 36.2833 50.2482 38.2291 51.171 40.4498C53.725 46.5962 63.5742 53.1223 72.2483 54.4157C80.0189 55.5747 83.8715 53.444 85.7357 51.4527C87.6645 49.3923 88.4298 46.3837 87.7827 43.4045C87.0444 40.0054 83.9688 36.8586 82.4544 36.0518C82.328 35.9847 82.2161 35.8933 82.1251 35.7829C82.0341 35.6724 81.9658 35.5452 81.924 35.4083C81.8822 35.2715 81.8678 35.1277 81.8816 34.9853C81.8954 34.8429 81.9371 34.7046 82.0044 34.5783C82.0717 34.452 82.1632 34.3402 82.2737 34.2493C82.3842 34.1584 82.5115 34.0902 82.6484 34.0486C82.7853 34.0069 82.9291 33.9926 83.0715 34.0066C83.2139 34.0205 83.3522 34.0624 83.4784 34.1298C85.2601 35.0789 88.976 38.6382 89.9109 42.9423C90.7098 46.6206 89.7434 50.3584 87.3255 52.941C85.5197 54.87 82.2229 56.9199 76.3726 56.92Z" fill="#E5894A"/>
<path d="M74.6138 64.2517C72.3579 64.2417 70.116 63.8967 67.9615 63.228C61.4757 61.252 56.7616 57.0666 55.0359 55.3588C49.6901 50.0687 43.2069 42.1642 48.5998 34.6281L48.6013 34.626C50.9521 31.3569 56.585 29.4912 64.0802 29.4912C64.177 29.4912 64.2734 29.4916 64.3709 29.4922C71.482 29.5376 78.8227 31.3255 83.5283 34.1582C89.2741 37.6171 92.7415 43.0824 92.8039 48.7778C92.8581 53.729 90.3442 58.064 85.7249 60.9844C82.4106 63.1152 78.554 64.2493 74.6138 64.2517ZM50.3694 35.8974C48.4678 38.5561 48.2599 41.4776 49.7341 44.8288C50.9136 47.5103 53.0851 50.3644 56.5677 53.8109C58.1784 55.4048 62.5748 59.3103 68.5963 61.1447C74.3277 62.8908 79.699 62.2176 84.5612 59.1437C88.518 56.6421 90.6718 52.9692 90.6263 48.8017C90.5722 43.8671 87.4989 39.0904 82.4051 36.024C78.0153 33.3814 71.0995 31.7129 64.357 31.6699C57.5378 31.6336 52.3044 33.2068 50.3693 35.8975L50.3694 35.8974Z" fill="#0DA053"/>
<path d="M81.8037 46.3867C81.6315 46.3866 81.4618 46.3457 81.3085 46.2674C81.1552 46.189 81.0226 46.0754 80.9217 45.936C80.8208 45.7965 80.7543 45.6351 80.7278 45.465C80.7013 45.2948 80.7155 45.1209 80.7692 44.9573C81.6017 42.4269 79.7578 39.1198 76.5716 37.4284C74.979 36.5829 69.3793 34.346 64.1927 41.0532C64.1054 41.1669 63.9966 41.2622 63.8724 41.3336C63.7482 41.4051 63.6111 41.4514 63.469 41.4698C63.3269 41.4882 63.1825 41.4784 63.0442 41.4409C62.9059 41.4034 62.7764 41.339 62.663 41.2513C62.5497 41.1637 62.4547 41.0545 62.3836 40.9301C62.3126 40.8056 62.2667 40.6684 62.2488 40.5262C62.2309 40.3841 62.2412 40.2397 62.2791 40.1016C62.3171 39.9634 62.3819 39.8341 62.47 39.721C64.6996 36.8378 67.2992 35.059 70.1967 34.4341C72.7108 33.8961 75.3344 34.2759 77.5927 35.5048C81.7562 37.7151 84.0112 42.0714 82.8378 45.6378C82.7662 45.8556 82.6276 46.0452 82.442 46.1797C82.2563 46.3141 82.0329 46.3866 81.8037 46.3867V46.3867Z" fill="#C16F38"/>
<path d="M75.1369 49.9956C67.006 49.9957 62.491 44.1532 62.2463 40.8643C62.1303 39.3063 62.9433 38.1719 64.3175 37.974C64.6033 37.9329 64.8938 38.007 65.125 38.18C65.3562 38.3531 65.5092 38.6109 65.5504 38.8967C65.5915 39.1826 65.5174 39.4731 65.3443 39.7043C65.1713 39.9355 64.9135 40.0885 64.6276 40.1296C64.5224 40.1448 64.3781 40.1655 64.418 40.7027C64.5984 43.1274 68.5451 47.8177 75.1419 47.8179C75.1678 47.8179 75.1935 47.8178 75.2195 47.8176C77.4868 47.805 79.1164 47.2702 80.0626 46.2281C80.6921 45.5188 81.0196 44.5916 80.9752 43.6442C80.9597 43.5017 80.9724 43.3575 81.0128 43.22C81.0531 43.0824 81.1203 42.9541 81.2103 42.8426C81.3003 42.731 81.4115 42.6383 81.5374 42.5698C81.6634 42.5013 81.8016 42.4584 81.9442 42.4435C82.0868 42.4285 82.2309 42.4419 82.3683 42.4828C82.5057 42.5237 82.6337 42.5913 82.7449 42.6818C82.8561 42.7723 82.9483 42.8838 83.0163 43.01C83.0843 43.1362 83.1267 43.2746 83.1411 43.4173C83.2415 44.9634 82.7266 46.4866 81.7085 47.6546C80.3379 49.1915 78.1587 49.9791 75.2316 49.9954C75.2 49.9955 75.1685 49.9956 75.1369 49.9956Z" fill="#C16F38"/>
</g>
<defs>
<clipPath id="clip0_1158_58554">
<rect width="106" height="104" fill="white"/>
</clipPath>
</defs>
</svg>
